{
	"asset":{
		"generator":"Khronos glTF Blender I/O v4.3.47",
		"version":"2.0"
	},
	"scene":0,
	"scenes":[
		{
			"name":"Scene",
			"nodes":[
				0
			]
		}
	],
	"nodes":[
		{
			"mesh":0,
			"name":"Sphere"
		}
	],
	"materials":[
		{
			"doubleSided":true,
			"name":"Material.001",
			"pbrMetallicRoughness":{
				"baseColorFactor":[
					0.18447691202163696,
					0.5021244883537292,
					1,
					1
				],
				"metallicFactor":0.699999988079071,
				"roughnessFactor":0.30000001192092896
			}
		}
	],
	"meshes":[
		{
			"name":"Sphere",
			"primitives":[
				{
					"attributes":{
						"POSITION":0,
						"NORMAL":1,
						"TEXCOORD_0":2
					},
					"indices":3,
					"material":0
				}
			]
		}
	],
	"accessors":[
		{
			"bufferView":0,
			"componentType":5126,
			"count":2141,
			"max":[
				0.9872310161590576,
				0.9975767135620117,
				0.9872307181358337
			],
			"min":[
				-0.9872305393218994,
				-0.9975767135620117,
				-0.9872310161590576
			],
			"type":"VEC3"
		},
		{
			"bufferView":1,
			"componentType":5126,
			"count":2141,
			"type":"VEC3"
		},
		{
			"bufferView":2,
			"componentType":5126,
			"count":2141,
			"type":"VEC2"
		},
		{
			"bufferView":3,
			"componentType":5123,
			"count":11904,
			"type":"SCALAR"
		}
	],
	"bufferViews":[
		{
			"buffer":0,
			"byteLength":25692,
			"byteOffset":0,
			"target":34962
		},
		{
			"buffer":0,
			"byteLength":25692,
			"byteOffset":25692,
			"target":34962
		},
		{
			"buffer":0,
			"byteLength":17128,
			"byteOffset":51384,
			"target":34962
		},
		{
			"buffer":0,
			"byteLength":23808,
			"byteOffset":68512,
			"target":34963
		}
	],
	"buffers":[
		{
			"byteLength":92320,
			"uri":"Sphere.bin"
		}
	]
}
